<?xml version="1.0" encoding="utf-8"?>
<svg width="1932" height="2500" viewBox="3131.91 9546.380000000001 14976.39 8847.240000000002" shape-rendering="geometricPrecision" text-rendering="geometricPrecision" image-rendering="optimizeQuality" fill-rule="evenodd" clip-rule="evenodd" xmlns="http://www.w3.org/2000/svg" xmlns:bx="https://boxy-svg.com">
  <defs>
    <style bx:fonts="Arial">@font-face { font-family: Arial; font-variant: normal; font-weight: 400; src: ; }</style>
    <style>.str0 { stroke: rgb(25, 55, 145); stroke-width: 7.62; stroke-miterlimit: 22.9256; }.fil3 { fill: none; fill-rule: nonzero; }.fil0 { fill: rgb(55, 70, 132); }.fnt0 { font-weight: 400; font-size: 1081.82px; font-family: Arial; }</style>
  </defs>
  <g id="Capa_x0020_1">
    <path class="fil0" d="M12878.6 16039.31l470.06-2784.55-1153.73 3.26-624.75 1408.79-188.79-1411.92-1123.4-.06c-6.17 4.49-13.57 7.23-14.45 12.41l-470.95 2771.87 641.16-1.71 350.49-2250.82 240.06 2252.35 511.49-2.19 972.66-2218.84-405.52 2220.88 795.67.53zM13131.58 15304.94c13.82 98.75 122.92 262.58 172.01 323.59 234.49 291.45 625.68 425.49 1024.87 450.03 1336.38 82.11 1582.55-1026.07 1184.68-1430.2-194.1-197.14-314.12-241.75-629.96-351.36-122.48-42.52-250.88-81.86-364.79-131.64-216.08-94.43-160.03-238.68-97.93-289.75 87.44-71.9 282.77-70.06 405.24-28.04 62.25 21.34 116.69 51.2 158.51 88.56 49.11 43.88 57.23 90.79 97.56 145.95l711.1-183.93c-23.22-119.56-115.49-241.8-174.83-312.29-372.55-442.61-1377.38-499.08-1820.4-155.68-402.4 311.94-482.36 977.92-31.67 1286.81 292.34 200.35 917.85 305.76 996.48 446.2 73.78 131.78-52.6 237.2-162.87 262.81-132.74 30.84-317.82 13.69-431.28-35.19-153.53-66.11-174.23-152.54-234.43-244.33l-802.29 158.46z" style="fill: rgb(255, 255, 255);"/>
    <path class="fil0" d="M17021.3 14118.37l118.45 774.88-466.32 2.39 347.87-777.27zm-580.6 1353.41l759.35-.47 74.01 563.35 834.24 3.59-461.82-2783.4-865.97 3.27-1295.81 2780.73 698.04-.79 257.96-566.28zM8826.88 16037.13l269.36-1291.18 1092.08-1490.94-746.03-.14-648.18 939.4-364.94-939.44-891.01 2.45 657.82 1489.57-209.86 1292.45z" style="fill: rgb(255, 255, 255);"/>
    <path d="M7012.77 10639.14h.01c206.57 33.8 347.91 230.46 314.11 437.03-64.5 394.12-129.01 788.25-193.51 1182.37l-771.5 1.49 132.94-798.42-671.77-.68c-295.77-.3-527.83 7.57-480.11-284.46 91-556.82 1055.87-639.25 1514.45-564.2 51.84 8.49 102.62 18.23 155.38 26.87zm-58.1 2712.68l-206.51 1209.78c-35.18 206.13-227.89 314.1-437.02 314.1h-.01c-209.19 0-347.59-230.42-314.11-437.02l175.68-1083.93 781.97-2.93z" style="fill: rgb(255, 255, 255);"/>
    <path d="M6128.88 12530.95h1183.96l-103.8 634.7H6025.09z" style="fill: rgb(255, 255, 255);"/>
    <path class="fil0" d="M5651.98 11577.62h2429.09l.07.66h897.96l1067.55-596.65 2614.52-1435.25 2475.01 1435.25 2568 1435.21h-1782.55l-1221.46-682.67-2039.03-1191.54-2178.45 1191.54-1221.47 682.67H5988.27l-143.73 862.14h1512.38l-166.58 992.64H5679.15c-248.78 1492.63-170.41 1721.91-1152.35 1799.45l301.01-1808.87H3814.19c-682.28 0-240.26-960.31 652.86-972.48 403.96 6.44 623.01-429.38 684.69-808.84 49.47-304.25 68.73-903.26 500.24-903.26zm104.03 154.11c128.29 0 232.28 103.99 232.28 232.28 0 128.28-103.99 232.28-232.28 232.28-128.29 0-232.27-104-232.27-232.28 0-128.29 103.98-232.28 232.27-232.28z" style="fill: rgb(255, 255, 255);"/>
    <path class="fil3 str0" d="M4495.16 17315.67v-774.58h522.52v90.87h-419.75v241.25h363.49v90.87h-363.49v351.59z" style="fill: rgb(255, 255, 255);"/>
    <path id="1" class="fil3 str0" d="M5096.87 17315.67v-774.58h559.3v90.87h-456.52v238h427.32v90.87h-427.32v263.97h474.92v90.87z" style="fill: rgb(255, 255, 255);"/>
    <path id="2" class="fil3 str0" d="M5762.59 17315.67v-774.58h343.3c69.06 0 121.53 7.03 157.41 20.91 35.88 13.89 64.54 38.41 86 73.57 21.46 35.15 32.09 74.1 32.09 116.65 0 54.99-17.85 101.33-53.36 139.02-35.52 37.68-90.34 61.48-164.62 71.76 27.22 12.98 47.78 25.96 61.84 38.58 29.93 27.41 58.24 61.85 84.74 103.14l133.97 210.95h-128.02l-102.41-161.19c-29.75-46.7-54.45-82.22-73.74-106.92-19.47-24.7-36.78-41.83-52.11-51.75-15.14-9.73-30.83-16.59-46.7-20.55-11.54-2.35-30.47-3.61-56.97-3.61h-118.64v344.02h-102.78zm102.78-432.73h219.97c46.88 0 83.3-4.87 109.62-14.6 26.33-9.56 46.34-25.06 59.86-46.52 13.7-21.28 20.56-44.36 20.56-69.42 0-36.6-13.17-66.89-39.67-90.51-26.5-23.62-68.34-35.34-125.49-35.34h-244.85v256.39z" style="fill: rgb(255, 255, 255);"/>
    <path id="3" class="fil3 str0" d="M6487.99 17315.67v-774.58h343.3c69.06 0 121.53 7.03 157.41 20.91 35.88 13.89 64.54 38.41 86 73.57 21.46 35.15 32.09 74.1 32.09 116.65 0 54.99-17.85 101.33-53.36 139.02-35.52 37.68-90.34 61.48-164.62 71.76 27.22 12.98 47.78 25.96 61.84 38.58 29.93 27.41 58.24 61.85 84.74 103.14l133.97 210.95h-128.02l-102.41-161.19c-29.75-46.7-54.45-82.22-73.74-106.92-19.47-24.7-36.78-41.83-52.11-51.75-15.14-9.73-30.83-16.59-46.7-20.55-11.54-2.35-30.47-3.61-56.97-3.61h-118.64v344.02h-102.78zm102.78-432.73h219.97c46.88 0 83.3-4.87 109.62-14.6 26.33-9.56 46.34-25.06 59.86-46.52 13.7-21.28 20.56-44.36 20.56-69.42 0-36.6-13.17-66.89-39.67-90.51-26.5-23.62-68.34-35.34-125.49-35.34h-244.85v256.39z" style="fill: rgb(255, 255, 255);"/>
    <path id="4" class="fil3 str0" d="M7213.39 17315.67v-774.58h559.3v90.87h-456.52v238h427.32v90.87h-427.32v263.97h474.92v90.87z" style="fill: rgb(255, 255, 255);"/>
    <path id="5" class="fil3 str0" d="M8073.84 17315.67v-683.71h-255.31v-90.87h613.39v90.87h-255.31v683.71z" style="fill: rgb(255, 255, 255);"/>
    <path id="6" class="fil3 str0" d="M8484.07 17315.67v-774.58h559.3v90.87h-456.52v238h427.32v90.87h-427.32v263.97h474.92v90.87z" style="fill: rgb(255, 255, 255);"/>
    <path id="7" class="fil3 str0" d="M9149.79 17315.67v-774.58h343.3c69.06 0 121.53 7.03 157.41 20.91 35.88 13.89 64.54 38.41 86 73.57 21.46 35.15 32.09 74.1 32.09 116.65 0 54.99-17.85 101.33-53.36 139.02-35.52 37.68-90.34 61.48-164.62 71.76 27.22 12.98 47.78 25.96 61.84 38.58 29.93 27.41 58.24 61.85 84.74 103.14l133.97 210.95h-128.02l-102.41-161.19c-29.75-46.7-54.45-82.22-73.74-106.92-19.47-24.7-36.78-41.83-52.11-51.75-15.14-9.73-30.83-16.59-46.7-20.55-11.54-2.35-30.47-3.61-56.97-3.61h-118.64v344.02h-102.78zm102.78-432.73h219.97c46.88 0 83.3-4.87 109.62-14.6 26.33-9.56 46.34-25.06 59.86-46.52 13.7-21.28 20.56-44.36 20.56-69.42 0-36.6-13.17-66.89-39.67-90.51-26.5-23.62-68.34-35.34-125.49-35.34h-244.85v256.39z" style="fill: rgb(255, 255, 255);"/>
    <path id="8" class="fil3 str0" d="M9890.34 17315.67v-774.58h102.77v774.58h-102.77zm-31.37-822.18l69.23-148.21h125.49l-115.75 148.21h-78.97z" style="fill: rgb(255, 255, 255);"/>
    <path id="9" class="fil3 str0" d="M10032.83 17315.67l297.14-774.58h112.69l315.35 774.58h-116.66l-89.61-234.75h-326.17l-84.02 234.75h-108.72zm222.85-318.06h263.97l-80.78-214.74c-24.34-65.27-42.73-119.18-55.53-161.73-10.64 50.49-24.88 100.07-42.73 149.11l-84.93 227.36z" style="fill: rgb(255, 255, 255);"/>
    <path id="10" class="fil3 str0" d="M11223.23 17315.67v-328.15l-298.58-446.43h123.32l153.08 234.39c28.49 43.45 54.99 86.91 79.15 130.36 23.62-40.57 52.29-86 85.65-136.49l150.01-228.26h119.54l-309.4 446.43v328.15h-102.77z" style="fill: rgb(255, 255, 255);"/>
    <path id="11" class="fil3 str0" d="M11949.54 17315.67v-774.58h153.61l183.19 548.3c16.95 51.03 29.21 89.25 36.97 114.67 8.83-28.13 22.71-69.59 41.47-124.23l186.43-538.74h137.21v774.58h-98.45v-648.01l-226.1 648.01h-92.31l-223.58-659.91v659.91h-98.44z" style="fill: rgb(255, 255, 255);"/>
    <path id="12" class="fil3 str0" d="M12712.09 17315.67l297.14-774.58h112.69l315.35 774.58h-116.66l-89.61-234.75h-326.17l-84.02 234.75h-108.72zm222.85-318.06h263.97l-80.78-214.74c-24.34-65.27-42.73-119.18-55.53-161.73-10.64 50.49-24.88 100.07-42.73 149.11l-84.93 227.36z" style="fill: rgb(255, 255, 255);"/>
    <path id="13" class="fil3 str0" d="M13579.39 17315.67v-683.71h-255.31v-90.87h613.39v90.87h-255.31v683.71z" style="fill: rgb(255, 255, 255);"/>
    <path id="14" class="fil3 str0" d="M13989.62 17315.67v-774.58h559.3v90.87h-456.52v238h427.32v90.87h-427.32v263.97h474.92v90.87z" style="fill: rgb(255, 255, 255);"/>
    <path id="15" class="fil3 str0" d="M14655.34 17315.67v-774.58h343.3c69.06 0 121.53 7.03 157.41 20.91 35.88 13.89 64.54 38.41 86 73.57 21.46 35.15 32.09 74.1 32.09 116.65 0 54.99-17.85 101.33-53.36 139.02-35.52 37.68-90.34 61.48-164.62 71.76 27.22 12.98 47.78 25.96 61.84 38.58 29.93 27.41 58.24 61.85 84.74 103.14l133.97 210.95h-128.02l-102.41-161.19c-29.75-46.7-54.45-82.22-73.74-106.92-19.47-24.7-36.78-41.83-52.11-51.75-15.14-9.73-30.83-16.59-46.7-20.55-11.54-2.35-30.47-3.61-56.97-3.61h-118.64v344.02h-102.78zm102.78-432.73h219.97c46.88 0 83.3-4.87 109.62-14.6 26.33-9.56 46.34-25.06 59.86-46.52 13.7-21.28 20.56-44.36 20.56-69.42 0-36.6-13.17-66.89-39.67-90.51-26.5-23.62-68.34-35.34-125.49-35.34h-244.85v256.39z" style="fill: rgb(255, 255, 255);"/>
    <path id="16" class="fil3 str0" d="M15395.89 17315.67v-774.58h102.77v774.58z" style="fill: rgb(255, 255, 255);"/>
    <path id="17" class="fil3 str0" d="M15538.38 17315.67l297.14-774.58h112.69l315.35 774.58h-116.66l-89.61-234.75h-326.17l-84.02 234.75h-108.72zm222.85-318.06h263.97l-80.78-214.74c-24.34-65.27-42.73-119.18-55.53-161.73-10.64 50.49-24.88 100.07-42.73 149.11l-84.93 227.36z" style="fill: rgb(255, 255, 255);"/>
    <path id="18" class="fil3 str0" d="M16284.69 17315.67v-774.58h102.78v683.71h380.8v90.87z" style="fill: rgb(255, 255, 255);"/>
    <path id="19" class="fil3 str0" d="M16837 17315.67v-774.58h559.3v90.87h-456.52v238h427.32v90.87h-427.32v263.97h474.92v90.87z" style="fill: rgb(255, 255, 255);"/>
    <path id="20" class="fil3 str0" d="M17467.02 17066.85l96.29-8.65c4.5 38.94 15.14 70.86 31.91 95.92 16.77 24.88 42.73 45.07 77.89 60.58 35.16 15.33 74.83 23.08 118.82 23.08 39.13 0 73.56-5.77 103.49-17.49 29.93-11.72 52.11-27.77 66.72-48.14 14.6-20.38 21.99-42.55 21.99-66.35 0-24.16-7.03-45.26-21.09-63.47-14.07-18.03-37.32-33.18-69.78-45.62-20.73-7.93-66.71-20.55-137.93-37.68-71.22-17.13-120.98-33.18-149.47-48.32-36.96-19.47-64.37-43.63-82.4-72.3-18.21-28.67-27.23-60.95-27.23-96.47 0-39.3 11.18-75.9 33.36-109.8 22.18-34.08 54.45-59.86 97.18-77.53 42.55-17.67 89.97-26.5 142.08-26.5 57.34 0 108 9.19 151.82 27.76 43.81 18.39 77.53 45.62 101.15 81.68 23.62 35.88 36.24 76.63 38.04 122.06l-98.44 7.58c-5.23-48.86-23.08-85.83-53.55-110.71-30.48-25.06-75.55-37.5-135.05-37.5-62.03 0-107.28 11.36-135.59 34.08-28.31 22.71-42.55 50.12-42.55 82.21 0 27.77 10.1 50.67 30.11 68.7 19.83 17.85 71.22 36.42 154.52 55.17 83.3 18.93 140.46 35.34 171.47 49.41 44.89 20.73 78.25 46.87 99.71 78.79 21.45 31.73 32.09 68.33 32.09 109.8 0 41.29-11.72 79.88-35.34 116.3-23.62 36.42-57.34 64.73-101.51 84.92-44.18 20.19-93.76 30.29-149.11 30.29-69.96 0-128.56-10.28-175.8-30.65-47.42-20.37-84.38-51.03-111.24-92.13-27.05-40.93-41.11-87.27-42.56-139.02z" style="fill: rgb(255, 255, 255);"/>
    <path id="21" class="fil3 str0" d="M5077.96 18380.64v-774.58h292.45c51.39 0 90.69 2.52 117.92 7.39 38.04 6.31 69.96 18.39 95.74 36.06 25.78 17.85 46.52 42.73 62.21 74.65 15.68 31.91 23.44 67.07 23.44 105.47 0 65.63-20.92 121.35-62.93 166.78-41.83 45.62-117.74 68.34-227.36 68.34h-198.7v315.89h-102.77zm102.77-406.76h200.14c66.35 0 113.23-12.26 141.18-36.97 27.76-24.7 41.65-59.32 41.65-104.21 0-32.28-8.12-60.04-24.52-83.12-16.41-23.08-38.05-38.41-64.73-45.8-17.31-4.51-49.23-6.85-95.56-6.85h-198.16v276.95z" style="fill: rgb(255, 255, 255);"/>
    <path id="22" class="fil3 str0" d="M5578.53 18380.64l297.14-774.58h112.69l315.35 774.58h-116.66l-89.61-234.75h-326.17l-84.02 234.75h-108.72zm222.85-318.06h263.97l-80.78-214.74c-24.34-65.27-42.73-119.18-55.53-161.73-10.64 50.49-24.88 100.07-42.73 149.11l-84.93 227.36z" style="fill: rgb(255, 255, 255);"/>
    <path id="23" class="fil3 str0" d="M6331.33 18380.64v-774.58h343.3c69.06 0 121.53 7.03 157.41 20.91 35.88 13.89 64.54 38.41 86 73.57 21.46 35.15 32.09 74.1 32.09 116.65 0 54.99-17.85 101.33-53.36 139.02-35.52 37.68-90.34 61.48-164.62 71.76 27.22 12.98 47.78 25.96 61.84 38.58 29.93 27.41 58.24 61.85 84.74 103.14l133.97 210.95h-128.02l-102.41-161.19c-29.75-46.7-54.45-82.22-73.74-106.92-19.47-24.7-36.78-41.83-52.11-51.75-15.14-9.73-30.83-16.59-46.7-20.55-11.54-2.35-30.47-3.61-56.97-3.61h-118.64v344.02h-102.78zm102.78-432.73h219.97c46.88 0 83.3-4.87 109.62-14.6 26.33-9.56 46.34-25.06 59.86-46.52 13.7-21.28 20.56-44.36 20.56-69.42 0-36.6-13.17-66.89-39.67-90.51-26.5-23.62-68.34-35.34-125.49-35.34h-244.85v256.39z" style="fill: rgb(255, 255, 255);"/>
    <path id="24" class="fil3 str0" d="M6969.65 18380.64l297.14-774.58h112.69l315.35 774.58h-116.66l-89.61-234.75h-326.17l-84.02 234.75h-108.72zm222.85-318.06h263.97l-80.78-214.74c-24.34-65.27-42.73-119.18-55.53-161.73-10.64 50.49-24.88 100.07-42.73 149.11l-84.93 227.36z" style="fill: rgb(255, 255, 255);"/>
    <path id="25" class="fil3 str0" d="M7956.85 18380.64v-774.58h102.78v683.71h380.8v90.87z" style="fill: rgb(255, 255, 255);"/>
    <path id="26" class="fil3 str0" d="M8422.08 18380.64l297.14-774.58h112.69l315.35 774.58H9030.6l-89.61-234.75h-326.17l-84.02 234.75h-108.72zm222.85-318.06h263.97l-80.78-214.74c-24.34-65.27-42.73-119.18-55.53-161.73-10.64 50.49-24.88 100.07-42.73 149.11l-84.93 227.36z" style="fill: rgb(255, 255, 255);"/>
    <path id="27" class="fil3 str0" d="M9965.34 18108.92l102.77 25.97c-21.45 84.2-60.04 148.21-115.75 192.38-55.72 44.17-123.87 66.35-204.47 66.35-83.3 0-151.09-16.95-203.38-51.02-52.29-33.9-91.95-83.12-119.18-147.49-27.23-64.55-40.93-133.61-40.93-207.53 0-80.6 15.33-150.92 46.16-210.96 30.83-60.04 74.64-105.65 131.44-136.85 56.8-31.19 119.36-46.69 187.52-46.69 77.53 0 142.62 19.65 195.26 59.13 52.83 39.49 89.61 94.84 110.35 166.24l-100.61 23.8c-17.85-56.25-43.99-97.36-78.07-122.96-34.08-25.79-76.99-38.59-128.74-38.59-59.32 0-109.08 14.25-148.93 42.73-39.85 28.49-67.97 66.9-84.02 114.86-16.23 48.14-24.34 97.72-24.34 148.75 0 65.81 9.56 123.33 28.67 172.37 19.11 49.22 48.86 85.82 89.25 110.16 40.39 24.34 84.02 36.42 131.08 36.42 57.33 0 105.66-16.58 145.32-49.58 39.67-33.17 66.53-82.22 80.6-147.49z" style="fill: rgb(255, 255, 255);"/>
    <path id="28" class="fil3 str0" d="M10107.64 18003.63c0-128.38 34.62-228.99 103.67-301.65 69.06-72.66 158.13-108.9 267.39-108.9 71.58 0 135.95 17.12 193.47 51.2 57.33 34.08 101.15 81.68 131.26 142.8 30.11 60.94 45.25 130.18 45.25 207.53 0 78.43-15.86 148.75-47.6 210.59-31.73 62.03-76.62 108.91-134.68 140.64-58.24 31.92-120.99 47.78-188.24 47.78-73.02 0-138.11-17.67-195.63-52.83-57.33-35.16-100.97-83.12-130.54-144.06-29.57-60.76-44.35-125.13-44.35-193.1zm106.02 1.8c0 93.22 25.06 166.6 75.18 220.15 50.13 53.55 113.05 80.41 188.78 80.41 77.17 0 140.46-27.04 190.4-81.13 49.76-54.09 74.65-130.9 74.65-230.43 0-62.93-10.64-117.92-31.92-164.8-21.27-46.88-52.47-83.3-93.4-109.08-41.1-25.78-87.08-38.77-138.11-38.77-72.48 0-134.86 24.89-187.15 74.65-52.29 49.76-78.43 132.7-78.43 249z" style="fill: rgb(255, 255, 255);"/>
    <path id="29" class="fil3 str0" d="M10923.56 18380.64v-774.58h105.3l406.4 607.98v-607.98h98.44v774.58h-105.29l-406.41-607.98v607.98z" style="fill: rgb(255, 255, 255);"/>
    <path id="30" class="fil3 str0" d="M11616.5 18131.82l96.29-8.65c4.5 38.94 15.14 70.86 31.91 95.92 16.77 24.88 42.73 45.07 77.89 60.58 35.16 15.33 74.83 23.08 118.82 23.08 39.13 0 73.56-5.77 103.49-17.49 29.93-11.72 52.11-27.77 66.72-48.14 14.6-20.38 21.99-42.55 21.99-66.35 0-24.16-7.03-45.26-21.09-63.47-14.07-18.03-37.32-33.18-69.78-45.62-20.73-7.93-66.71-20.55-137.93-37.68-71.22-17.13-120.98-33.18-149.47-48.32-36.96-19.47-64.37-43.63-82.4-72.3-18.21-28.67-27.23-60.95-27.23-96.47 0-39.3 11.18-75.9 33.36-109.8 22.18-34.08 54.45-59.86 97.18-77.53 42.55-17.67 89.97-26.5 142.08-26.5 57.34 0 108 9.19 151.82 27.76 43.81 18.39 77.53 45.62 101.15 81.68 23.62 35.88 36.24 76.63 38.04 122.06l-98.44 7.58c-5.23-48.86-23.08-85.83-53.55-110.71-30.48-25.06-75.55-37.5-135.05-37.5-62.03 0-107.28 11.36-135.59 34.08-28.31 22.71-42.55 50.12-42.55 82.21 0 27.77 10.1 50.67 30.11 68.7 19.83 17.85 71.22 36.42 154.52 55.17 83.3 18.93 140.46 35.34 171.47 49.41 44.89 20.73 78.25 46.87 99.71 78.79 21.45 31.73 32.09 68.33 32.09 109.8 0 41.29-11.72 79.88-35.34 116.3-23.62 36.42-57.34 64.73-101.51 84.92-44.18 20.19-93.76 30.29-149.11 30.29-69.96 0-128.56-10.28-175.8-30.65-47.42-20.37-84.38-51.03-111.24-92.13-27.05-40.93-41.11-87.27-42.56-139.02z" style="fill: rgb(255, 255, 255);"/>
    <path id="31" class="fil3 str0" d="M12512.65 18380.64v-683.71h-255.31v-90.87h613.39v90.87h-255.31v683.71z" style="fill: rgb(255, 255, 255);"/>
    <path id="32" class="fil3 str0" d="M12922.88 18380.64v-774.58h343.3c69.06 0 121.53 7.03 157.41 20.91 35.88 13.89 64.54 38.41 86 73.57 21.46 35.15 32.09 74.1 32.09 116.65 0 54.99-17.85 101.33-53.36 139.02-35.52 37.68-90.34 61.48-164.62 71.76 27.22 12.98 47.78 25.96 61.84 38.58 29.93 27.41 58.24 61.85 84.74 103.14l133.97 210.95h-128.02l-102.41-161.19c-29.75-46.7-54.45-82.22-73.74-106.92-19.47-24.7-36.78-41.83-52.11-51.75-15.14-9.73-30.83-16.59-46.7-20.55-11.54-2.35-30.47-3.61-56.97-3.61h-118.64v344.02h-102.78zm102.78-432.73h219.97c46.88 0 83.3-4.87 109.62-14.6 26.33-9.56 46.34-25.06 59.86-46.52 13.7-21.28 20.56-44.36 20.56-69.42 0-36.6-13.17-66.89-39.67-90.51-26.5-23.62-68.34-35.34-125.49-35.34h-244.85v256.39z" style="fill: rgb(255, 255, 255);"/>
    <path id="33" class="fil3 str0" d="M14153.49 17606.06h102.78v447.33c0 77.89-8.84 139.73-26.33 185.53-17.67 45.62-49.4 82.94-95.2 111.61-45.98 28.67-106.02 43.09-180.66 43.09-72.3 0-131.62-12.44-177.6-37.5-46.16-25.06-78.97-61.12-98.63-108.54-19.65-47.42-29.57-112.15-29.57-194.19v-447.33h102.78v447.15c0 67.25 6.31 117.02 18.75 148.75 12.44 31.91 33.71 56.61 64.19 73.74 30.29 17.31 67.43 25.97 111.24 25.97 75.01 0 128.56-17.13 160.47-51.21 31.92-34.26 47.78-99.89 47.78-197.25v-447.15z" style="fill: rgb(255, 255, 255);"/>
    <path id="34" class="fil3 str0" d="M14923.25 18108.92l102.77 25.97c-21.45 84.2-60.04 148.21-115.75 192.38-55.72 44.17-123.87 66.35-204.47 66.35-83.3 0-151.09-16.95-203.38-51.02-52.29-33.9-91.95-83.12-119.18-147.49-27.23-64.55-40.93-133.61-40.93-207.53 0-80.6 15.33-150.92 46.16-210.96 30.83-60.04 74.64-105.65 131.44-136.85 56.8-31.19 119.36-46.69 187.52-46.69 77.53 0 142.62 19.65 195.26 59.13 52.83 39.49 89.61 94.84 110.35 166.24l-100.61 23.8c-17.85-56.25-43.99-97.36-78.07-122.96-34.08-25.79-76.99-38.59-128.74-38.59-59.32 0-109.08 14.25-148.93 42.73-39.85 28.49-67.97 66.9-84.02 114.86-16.23 48.14-24.34 97.72-24.34 148.75 0 65.81 9.56 123.33 28.67 172.37 19.11 49.22 48.86 85.82 89.25 110.16 40.39 24.34 84.02 36.42 131.08 36.42 57.33 0 105.66-16.58 145.32-49.58 39.67-33.17 66.53-82.22 80.6-147.49z" style="fill: rgb(255, 255, 255);"/>
    <path id="35" class="fil3 str0" d="M15648.65 18108.92l102.77 25.97c-21.45 84.2-60.04 148.21-115.75 192.38-55.72 44.17-123.87 66.35-204.47 66.35-83.3 0-151.09-16.95-203.38-51.02-52.29-33.9-91.95-83.12-119.18-147.49-27.23-64.55-40.93-133.61-40.93-207.53 0-80.6 15.33-150.92 46.16-210.96 30.83-60.04 74.64-105.65 131.44-136.85 56.8-31.19 119.36-46.69 187.52-46.69 77.53 0 142.62 19.65 195.26 59.13 52.83 39.49 89.61 94.84 110.35 166.24l-100.61 23.8c-17.85-56.25-43.99-97.36-78.07-122.96-34.08-25.79-76.99-38.59-128.74-38.59-59.32 0-109.08 14.25-148.93 42.73-39.85 28.49-67.97 66.9-84.02 114.86-16.23 48.14-24.34 97.72-24.34 148.75 0 65.81 9.56 123.33 28.67 172.37 19.11 49.22 48.86 85.82 89.25 110.16 40.39 24.34 84.02 36.42 131.08 36.42 57.33 0 105.66-16.58 145.32-49.58 39.67-33.17 66.53-82.22 80.6-147.49z" style="fill: rgb(255, 255, 255);"/>
    <path id="36" class="fil3 str0" d="M15839.63 18380.64v-774.58h102.77v774.58z" style="fill: rgb(255, 255, 255);"/>
    <path id="37" class="fil3 str0" d="M16035.67 18003.63c0-128.38 34.62-228.99 103.67-301.65 69.06-72.66 158.13-108.9 267.39-108.9 71.58 0 135.95 17.12 193.47 51.2 57.33 34.08 101.15 81.68 131.26 142.8 30.11 60.94 45.25 130.18 45.25 207.53 0 78.43-15.86 148.75-47.6 210.59-31.73 62.03-76.62 108.91-134.68 140.64-58.24 31.92-120.99 47.78-188.24 47.78-73.02 0-138.11-17.67-195.63-52.83-57.33-35.16-100.97-83.12-130.54-144.06-29.57-60.76-44.35-125.13-44.35-193.1zm106.02 1.8c0 93.22 25.06 166.6 75.18 220.15 50.13 53.55 113.05 80.41 188.78 80.41 77.17 0 140.46-27.04 190.4-81.13 49.76-54.09 74.65-130.9 74.65-230.43 0-62.93-10.64-117.92-31.92-164.8-21.27-46.88-52.47-83.3-93.4-109.08-41.1-25.78-87.08-38.77-138.11-38.77-72.48 0-134.86 24.89-187.15 74.65-52.29 49.76-78.43 132.7-78.43 249zm186.07-446.97l69.24-148.21h125.49l-115.76 148.21h-78.97z" style="fill: rgb(255, 255, 255);"/>
    <path id="38" class="fil3 str0" d="M16851.59 18380.64v-774.58h105.3l406.4 607.98v-607.98h98.44v774.58h-105.29l-406.41-607.98v607.98z" style="fill: rgb(255, 255, 255);"/>
    <text id="38" class="fil0 fnt0" style="fill: rgb(255, 255, 255); white-space: pre;" x="4406.45" y="17315.7">F</text>
    <text id="38" class="fil0 fnt0" style="fill: rgb(255, 255, 255); white-space: pre;" x="5011.41" y="17315.7">E</text>
    <text id="38" class="fil0 fnt0" style="fill: rgb(255, 255, 255); white-space: pre;" x="5677.13" y="17315.7">R</text>
    <text id="38" class="fil0 fnt0" style="fill: rgb(255, 255, 255); white-space: pre;" x="6402.53" y="17315.7">R</text>
    <text id="38" class="fil0 fnt0" style="fill: rgb(255, 255, 255); white-space: pre;" x="7127.93" y="17315.7">E</text>
    <text id="38" class="fil0 fnt0" style="fill: rgb(255, 255, 255); white-space: pre;" x="7793.65" y="17315.7">T</text>
    <text id="38" class="fil0 fnt0" style="fill: rgb(255, 255, 255); white-space: pre;" x="8398.61" y="17315.7">E</text>
    <text id="38" class="fil0 fnt0" style="fill: rgb(255, 255, 255); white-space: pre;" x="9064.33" y="17315.7">R</text>
    <text id="38" class="fil0 fnt0" style="fill: rgb(255, 255, 255); white-space: pre;" x="9789.73" y="17315.7">Í</text>
    <text id="38" class="fil0 fnt0" style="fill: rgb(255, 255, 255); white-space: pre;" x="10034.5" y="17315.7">A</text>
    <text id="38" class="fil0 fnt0" style="fill: rgb(255, 255, 255); white-space: pre;" x="10921.6" y="17315.7">Y</text>
    <text id="38" class="fil0 fnt0" style="fill: rgb(255, 255, 255); white-space: pre;" x="11868.4" y="17315.7">M</text>
    <text id="38" class="fil0 fnt0" style="fill: rgb(255, 255, 255); white-space: pre;" x="12713.7" y="17315.7">A</text>
    <text id="38" class="fil0 fnt0" style="fill: rgb(255, 255, 255); white-space: pre;" x="13299.2" y="17315.7">T</text>
    <text id="38" class="fil0 fnt0" style="fill: rgb(255, 255, 255); white-space: pre;" x="13904.2" y="17315.7">E</text>
    <text id="38" class="fil0 fnt0" style="fill: rgb(255, 255, 255); white-space: pre;" x="14569.9" y="17315.7">R</text>
    <text id="38" class="fil0 fnt0" style="fill: rgb(255, 255, 255); white-space: pre;" x="15295.3" y="17315.7">I</text>
    <text id="38" class="fil0 fnt0" style="fill: rgb(255, 255, 255); white-space: pre;" x="15540" y="17315.7">A</text>
    <text id="38" class="fil0 fnt0" style="fill: rgb(255, 255, 255); white-space: pre;" x="16205.7" y="17315.7">L</text>
    <text id="38" class="fil0 fnt0" style="fill: rgb(255, 255, 255); white-space: pre;" x="16751.5" y="17315.7">E</text>
    <text id="38" class="fil0 fnt0" style="fill: rgb(255, 255, 255); white-space: pre;" x="17417.3" y="17315.7">S</text>
    <text id="38" class="fil0 fnt0" style="fill: rgb(255, 255, 255); white-space: pre;" x="4994.66" y="18380.6">P</text>
    <text id="38" class="fil0 fnt0" style="fill: rgb(255, 255, 255); white-space: pre;" x="5580.15" y="18380.6">A</text>
    <text id="38" class="fil0 fnt0" style="fill: rgb(255, 255, 255); white-space: pre;" x="6245.87" y="18380.6">R</text>
    <text id="38" class="fil0 fnt0" style="fill: rgb(255, 255, 255); white-space: pre;" x="6971.27" y="18380.6">A</text>
    <text id="38" class="fil0 fnt0" style="fill: rgb(255, 255, 255); white-space: pre;" x="7877.88" y="18380.6">L</text>
    <text id="38" class="fil0 fnt0" style="fill: rgb(255, 255, 255); white-space: pre;" x="8423.7" y="18380.6">A</text>
    <text id="38" class="fil0 fnt0" style="fill: rgb(255, 255, 255); white-space: pre;" x="9330.31" y="18380.6">C</text>
    <text id="38" class="fil0 fnt0" style="fill: rgb(255, 255, 255); white-space: pre;" x="10055.7" y="18380.6">O</text>
    <text id="38" class="fil0 fnt0" style="fill: rgb(255, 255, 255); white-space: pre;" x="10841.3" y="18380.6">N</text>
    <text id="38" class="fil0 fnt0" style="fill: rgb(255, 255, 255); white-space: pre;" x="11566.7" y="18380.6">S</text>
    <text id="38" class="fil0 fnt0" style="fill: rgb(255, 255, 255); white-space: pre;" x="12232.5" y="18380.6">T</text>
    <text id="38" class="fil0 fnt0" style="fill: rgb(255, 255, 255); white-space: pre;" x="12837.4" y="18380.6">R</text>
    <text id="38" class="fil0 fnt0" style="fill: rgb(255, 255, 255); white-space: pre;" x="13562.8" y="18380.6">U</text>
    <text id="38" class="fil0 fnt0" style="fill: rgb(255, 255, 255); white-space: pre;" x="14288.2" y="18380.6">C</text>
    <text id="38" class="fil0 fnt0" style="fill: rgb(255, 255, 255); white-space: pre;" x="15013.6" y="18380.6">C</text>
    <text id="38" class="fil0 fnt0" style="fill: rgb(255, 255, 255); white-space: pre;" x="15739" y="18380.6">I</text>
    <text id="38" class="fil0 fnt0" style="fill: rgb(255, 255, 255); white-space: pre;" x="15983.7" y="18380.6">Ó</text>
    <text id="38" class="fil0 fnt0" style="fill: rgb(255, 255, 255); white-space: pre;" x="16769.4" y="18380.6">N</text>
  </g>
</svg>